<svg width="700" height="118" viewBox="0 0 700 118" fill="none" xmlns="http://www.w3.org/2000/svg" role="img" aria-label="Capacidades"><defs><linearGradient id="g" x1="0" y1="0" x2="1" y2="1"><stop stop-color="#2563eb"/><stop offset="0.55" stop-color="#1B8EB6"/><stop offset="1" stop-color="#10b981"/></linearGradient></defs><style>.l{fill:#1f2328}@media (prefers-color-scheme:dark){.l{fill:#e8edf3}}</style><g transform="translate(80,8) scale(0.72)"><rect width="28" height="28" rx="8" fill="url(#g)"/><g stroke="#ffffff" stroke-width="2.2" fill="none" stroke-linecap="round" stroke-linejoin="round"><path d="M11 10l-4 4 4 4"/><path d="M17 10l4 4-4 4"/><path d="M15.5 8.5l-3 11"/></g></g><text class="l" x="108" y="23.8" font-family="'Segoe UI',system-ui,-apple-system,Helvetica,Arial,sans-serif" font-size="16" font-weight="700">Desarrollo full-stack</text><g transform="translate(372,8) scale(0.72)"><rect width="28" height="28" rx="8" fill="url(#g)"/><path d="M7 15a7 7 0 0 1 14 0" fill="none" stroke="#ffffff" stroke-width="2.4" stroke-linecap="round"/><rect x="5.4" y="14.6" width="3.4" height="6.6" rx="1.7" fill="#ffffff"/><rect x="19.2" y="14.6" width="3.4" height="6.6" rx="1.7" fill="#ffffff"/></g><text class="l" x="400" y="23.8" font-family="'Segoe UI',system-ui,-apple-system,Helvetica,Arial,sans-serif" font-size="16" font-weight="700">Soporte y digitalización</text><g transform="translate(80,48) scale(0.72)"><rect width="28" height="28" rx="8" fill="url(#g)"/><g stroke="#ffffff" stroke-width="2.2" fill="none" stroke-linecap="round" stroke-linejoin="round"><path d="M14 8v9"/><path d="M10 12l4-4 4 4"/><path d="M8.5 20.5h11"/></g></g><text class="l" x="108" y="63.8" font-family="'Segoe UI',system-ui,-apple-system,Helvetica,Arial,sans-serif" font-size="16" font-weight="700">De la idea al despliegue</text><g transform="translate(372,48) scale(0.72)"><rect width="28" height="28" rx="8" fill="url(#g)"/><path d="M14 23s6.4-6.7 6.4-11.6A6.4 6.4 0 1 0 7.6 11.4C7.6 16.3 14 23 14 23z" fill="#ffffff"/><circle cx="14" cy="11.4" r="2.5" fill="url(#g)"/></g><text class="l" x="400" y="63.8" font-family="'Segoe UI',system-ui,-apple-system,Helvetica,Arial,sans-serif" font-size="16" font-weight="700">Presencial y remoto</text><g transform="translate(80,88) scale(0.72)"><rect width="28" height="28" rx="8" fill="url(#g)"/><path d="M16 4 L8.5 16 H13 L12 24 L19.5 12 H15 Z" fill="#ffffff"/></g><text class="l" x="108" y="103.8" font-family="'Segoe UI',system-ui,-apple-system,Helvetica,Arial,sans-serif" font-size="16" font-weight="700">Rendimiento y SEO</text><g transform="translate(372,88) scale(0.72)"><rect width="28" height="28" rx="8" fill="url(#g)"/><path d="M6 9.5A2.5 2.5 0 0 1 8.5 7h11A2.5 2.5 0 0 1 22 9.5v5a2.5 2.5 0 0 1-2.5 2.5H12l-4 3v-3H8.5A2.5 2.5 0 0 1 6 14.5z" fill="#ffffff"/><g fill="url(#g)"><circle cx="11" cy="12" r="1.05"/><circle cx="14" cy="12" r="1.05"/><circle cx="17" cy="12" r="1.05"/></g></g><text class="l" x="400" y="103.8" font-family="'Segoe UI',system-ui,-apple-system,Helvetica,Arial,sans-serif" font-size="16" font-weight="700">Español e inglés</text></svg>
