<svg width="139" height="44" viewBox="0 0 139 44" fill="none" xmlns="http://www.w3.org/2000/svg" role="img" aria-label="shadcn/ui"><rect x="2" y="2" width="135" height="40" rx="20" fill="#1b1f24"/><g transform="translate(15,13) scale(0.75)"><path d="M22.219 11.784 11.784 22.219c-.407.407-.407 1.068 0 1.476.407.407 1.068.407 1.476 0L23.695 13.26c.407-.408.407-1.069 0-1.476-.408-.407-1.069-.407-1.476 0ZM20.132.305.305 20.132c-.407.407-.407 1.068 0 1.476.408.407 1.069.407 1.476 0L21.608 1.781c.407-.407.407-1.068 0-1.476-.408-.407-1.069-.407-1.476 0Z" fill="#ffffff"/></g><text x="42" y="27.5" font-family="'Segoe UI',system-ui,Arial,sans-serif" font-size="15" font-weight="700" fill="#ffffff">shadcn/ui</text></svg>
